<svg xmlns="http://www.w3.org/2000/svg" xmlns:xlink="http://www.w3.org/1999/xlink" width="300" zoomAndPan="magnify" viewBox="0 0 224.87999 225" height="300" preserveAspectRatio="xMidYMid meet" version="1.0"><defs><clipPath id="be642a3f1c"><path d="M 0 101 L 224.761719 101 L 224.761719 124 L 0 124 Z M 0 101 " clip-rule="nonzero"/></clipPath><clipPath id="81c8c55387"><path d="M 0 168 L 224.761719 168 L 224.761719 191.207031 L 0 191.207031 Z M 0 168 " clip-rule="nonzero"/></clipPath><clipPath id="44caeb0c97"><path d="M 0 33.792969 L 224.761719 33.792969 L 224.761719 57 L 0 57 Z M 0 33.792969 " clip-rule="nonzero"/></clipPath></defs><g clip-path="url(#be642a3f1c)"><path fill="#ff5516" d="M 213.636719 101.257812 L 11.242188 101.257812 C 10.503906 101.257812 9.773438 101.328125 9.050781 101.472656 C 8.328125 101.617188 7.625 101.828125 6.941406 102.113281 C 6.257812 102.394531 5.609375 102.742188 4.996094 103.152344 C 4.382812 103.5625 3.816406 104.027344 3.292969 104.550781 C 2.769531 105.070312 2.304688 105.640625 1.894531 106.253906 C 1.484375 106.867188 1.136719 107.515625 0.855469 108.195312 C 0.574219 108.878906 0.359375 109.582031 0.214844 110.304688 C 0.0703125 111.03125 0 111.761719 0 112.5 C 0 113.238281 0.0703125 113.96875 0.214844 114.695312 C 0.359375 115.417969 0.574219 116.121094 0.855469 116.804688 C 1.136719 117.484375 1.484375 118.132812 1.894531 118.746094 C 2.304688 119.359375 2.769531 119.929688 3.292969 120.449219 C 3.816406 120.972656 4.382812 121.4375 4.996094 121.847656 C 5.609375 122.257812 6.257812 122.605469 6.941406 122.886719 C 7.625 123.171875 8.328125 123.382812 9.050781 123.527344 C 9.773438 123.671875 10.503906 123.742188 11.242188 123.742188 L 213.636719 123.742188 C 214.375 123.742188 215.105469 123.671875 215.828125 123.527344 C 216.554688 123.382812 217.257812 123.171875 217.9375 122.886719 C 218.621094 122.605469 219.269531 122.257812 219.882812 121.847656 C 220.496094 121.4375 221.066406 120.972656 221.585938 120.449219 C 222.109375 119.929688 222.574219 119.359375 222.984375 118.746094 C 223.394531 118.132812 223.742188 117.484375 224.023438 116.804688 C 224.304688 116.121094 224.519531 115.417969 224.664062 114.695312 C 224.808594 113.96875 224.878906 113.238281 224.878906 112.5 C 224.878906 111.761719 224.808594 111.03125 224.664062 110.304688 C 224.519531 109.582031 224.304688 108.878906 224.023438 108.195312 C 223.742188 107.515625 223.394531 106.867188 222.984375 106.253906 C 222.574219 105.640625 222.109375 105.070312 221.585938 104.550781 C 221.066406 104.027344 220.496094 103.5625 219.882812 103.152344 C 219.269531 102.742188 218.621094 102.394531 217.9375 102.113281 C 217.257812 101.828125 216.554688 101.617188 215.828125 101.472656 C 215.105469 101.328125 214.375 101.257812 213.636719 101.257812 Z M 213.636719 101.257812 " fill-opacity="1" fill-rule="nonzero"/></g><g clip-path="url(#81c8c55387)"><path fill="#ff5516" d="M 213.636719 168.71875 L 11.242188 168.71875 C 10.503906 168.71875 9.773438 168.792969 9.050781 168.9375 C 8.328125 169.078125 7.625 169.292969 6.941406 169.574219 C 6.257812 169.859375 5.609375 170.203125 4.996094 170.613281 C 4.382812 171.023438 3.816406 171.492188 3.292969 172.011719 C 2.769531 172.535156 2.304688 173.101562 1.894531 173.71875 C 1.484375 174.332031 1.136719 174.980469 0.855469 175.660156 C 0.574219 176.34375 0.359375 177.046875 0.214844 177.769531 C 0.0703125 178.496094 0 179.226562 0 179.964844 C 0 180.703125 0.0703125 181.433594 0.214844 182.15625 C 0.359375 182.882812 0.574219 183.585938 0.855469 184.265625 C 1.136719 184.949219 1.484375 185.597656 1.894531 186.210938 C 2.304688 186.824219 2.769531 187.394531 3.292969 187.914062 C 3.816406 188.4375 4.382812 188.902344 4.996094 189.3125 C 5.609375 189.722656 6.257812 190.070312 6.941406 190.351562 C 7.625 190.632812 8.328125 190.847656 9.050781 190.992188 C 9.773438 191.136719 10.503906 191.207031 11.242188 191.207031 L 213.636719 191.207031 C 214.375 191.207031 215.105469 191.136719 215.828125 190.992188 C 216.554688 190.847656 217.257812 190.632812 217.9375 190.351562 C 218.621094 190.070312 219.269531 189.722656 219.882812 189.3125 C 220.496094 188.902344 221.066406 188.4375 221.585938 187.914062 C 222.109375 187.394531 222.574219 186.824219 222.984375 186.210938 C 223.394531 185.597656 223.742188 184.949219 224.023438 184.265625 C 224.304688 183.585938 224.519531 182.882812 224.664062 182.15625 C 224.808594 181.433594 224.878906 180.703125 224.878906 179.964844 C 224.878906 179.226562 224.808594 178.496094 224.664062 177.769531 C 224.519531 177.046875 224.304688 176.34375 224.023438 175.660156 C 223.742188 174.980469 223.394531 174.332031 222.984375 173.71875 C 222.574219 173.101562 222.109375 172.535156 221.585938 172.011719 C 221.066406 171.492188 220.496094 171.023438 219.882812 170.613281 C 219.269531 170.203125 218.621094 169.859375 217.9375 169.574219 C 217.257812 169.292969 216.554688 169.078125 215.828125 168.9375 C 215.105469 168.792969 214.375 168.71875 213.636719 168.71875 Z M 213.636719 168.71875 " fill-opacity="1" fill-rule="nonzero"/></g><g clip-path="url(#44caeb0c97)"><path fill="#ff5516" d="M 11.242188 56.28125 L 213.636719 56.28125 C 214.375 56.28125 215.105469 56.207031 215.828125 56.0625 C 216.554688 55.917969 217.257812 55.707031 217.9375 55.425781 C 218.621094 55.140625 219.269531 54.796875 219.882812 54.386719 C 220.496094 53.976562 221.066406 53.507812 221.585938 52.988281 C 222.109375 52.464844 222.574219 51.898438 222.984375 51.28125 C 223.394531 50.667969 223.742188 50.019531 224.023438 49.339844 C 224.304688 48.65625 224.519531 47.953125 224.664062 47.230469 C 224.808594 46.503906 224.878906 45.773438 224.878906 45.035156 C 224.878906 44.296875 224.808594 43.566406 224.664062 42.84375 C 224.519531 42.117188 224.304688 41.414062 224.023438 40.734375 C 223.742188 40.050781 223.394531 39.402344 222.984375 38.789062 C 222.574219 38.175781 222.109375 37.605469 221.585938 37.085938 C 221.066406 36.5625 220.496094 36.097656 219.882812 35.6875 C 219.269531 35.277344 218.621094 34.929688 217.9375 34.648438 C 217.257812 34.367188 216.554688 34.152344 215.828125 34.007812 C 215.105469 33.863281 214.375 33.792969 213.636719 33.792969 L 11.242188 33.792969 C 10.503906 33.792969 9.773438 33.863281 9.050781 34.007812 C 8.328125 34.152344 7.625 34.367188 6.941406 34.648438 C 6.257812 34.929688 5.609375 35.277344 4.996094 35.6875 C 4.382812 36.097656 3.816406 36.5625 3.292969 37.085938 C 2.769531 37.605469 2.304688 38.175781 1.894531 38.789062 C 1.484375 39.402344 1.136719 40.050781 0.855469 40.734375 C 0.574219 41.414062 0.359375 42.117188 0.214844 42.84375 C 0.0703125 43.566406 0 44.296875 0 45.035156 C 0 45.773438 0.0703125 46.503906 0.214844 47.230469 C 0.359375 47.953125 0.574219 48.65625 0.855469 49.339844 C 1.136719 50.019531 1.484375 50.667969 1.894531 51.28125 C 2.304688 51.898438 2.769531 52.464844 3.292969 52.988281 C 3.816406 53.507812 4.382812 53.976562 4.996094 54.386719 C 5.609375 54.796875 6.257812 55.140625 6.941406 55.425781 C 7.625 55.707031 8.328125 55.917969 9.050781 56.0625 C 9.773438 56.207031 10.503906 56.28125 11.242188 56.28125 Z M 11.242188 56.28125 " fill-opacity="1" fill-rule="nonzero"/></g></svg>