<svg xmlns="http://www.w3.org/2000/svg" xmlns:xlink="http://www.w3.org/1999/xlink" width="300" zoomAndPan="magnify" viewBox="0 0 224.87999 225" height="300" preserveAspectRatio="xMidYMid meet" version="1.0"><defs><clipPath id="f1f45cf8c1"><path d="M 1 2 L 224 2 L 224 224.257812 L 1 224.257812 Z M 1 2 " clip-rule="nonzero"/></clipPath></defs><g clip-path="url(#f1f45cf8c1)"><path fill="#ff5516" d="M 136.703125 113.371094 L 218.269531 31.804688 C 224.953125 25.121094 224.953125 14.285156 218.269531 7.601562 C 211.585938 0.917969 200.753906 0.917969 194.070312 7.601562 L 112.5 89.171875 L 30.933594 7.601562 C 24.25 0.917969 13.414062 0.917969 6.730469 7.601562 C 0.046875 14.285156 0.046875 25.121094 6.730469 31.804688 L 88.300781 113.371094 L 6.730469 194.941406 C 0.046875 201.625 0.046875 212.457031 6.730469 219.140625 C 10.070312 222.484375 14.453125 224.152344 18.832031 224.152344 C 23.210938 224.152344 27.589844 222.484375 30.933594 219.140625 L 112.5 137.574219 L 194.070312 219.140625 C 197.410156 222.484375 201.789062 224.152344 206.171875 224.152344 C 210.550781 224.152344 214.929688 222.484375 218.269531 219.140625 C 224.953125 212.457031 224.953125 201.621094 218.269531 194.941406 Z M 136.703125 113.371094 " fill-opacity="1" fill-rule="nonzero"/></g></svg>