<svg xmlns="http://www.w3.org/2000/svg" xmlns:xlink="http://www.w3.org/1999/xlink" width="300" zoomAndPan="magnify" viewBox="0 0 224.87999 225" height="300" preserveAspectRatio="xMidYMid meet" version="1.0"><defs><clipPath id="27f91bbf41"><path d="M 3.679688 0.0585938 L 221.0625 0.0585938 L 221.0625 224.9375 L 3.679688 224.9375 Z M 3.679688 0.0585938 " clip-rule="nonzero"/></clipPath><clipPath id="ceba76b02a"><path d="M 4.167969 208.074219 C 3.679688 207.339844 3.679688 206.609375 3.925781 205.875 C 3.925781 205.632812 4.167969 205.144531 4.414062 204.898438 L 110.359375 100.902344 C 111.335938 99.925781 112.800781 99.925781 113.777344 100.902344 L 219.972656 204.898438 C 220.460938 205.386719 220.703125 205.875 220.703125 206.609375 L 221.191406 222.234375 C 221.191406 222.964844 220.949219 223.453125 220.460938 223.941406 C 219.972656 224.675781 219.484375 224.917969 218.75 224.917969 L 177.25 224.917969 C 176.519531 224.917969 176.03125 224.675781 175.542969 224.1875 L 112.070312 161.203125 L 49.085938 224.1875 C 48.597656 224.675781 48.109375 224.917969 47.378906 224.917969 L 16.375 224.917969 C 15.640625 224.917969 14.664062 224.429688 14.421875 223.699219 Z M 14.421875 124.097656 C 14.910156 124.828125 15.640625 125.316406 16.375 125.316406 L 47.378906 125.316406 C 48.109375 125.316406 48.597656 125.074219 49.085938 124.585938 L 112.070312 61.601562 L 175.542969 124.585938 C 176.03125 125.074219 176.519531 125.316406 177.25 125.316406 L 218.75 125.316406 C 219.484375 125.316406 219.972656 125.074219 220.460938 124.585938 C 220.949219 124.097656 221.191406 123.363281 221.191406 122.875 L 220.703125 107.25 C 220.703125 106.519531 220.460938 106.03125 219.972656 105.542969 L 114.023438 1.058594 C 113.046875 0.0820312 111.582031 0.0820312 110.605469 1.058594 L 4.65625 105.054688 C 4.414062 105.296875 4.167969 105.542969 4.167969 106.03125 C 3.925781 106.761719 3.925781 107.738281 4.414062 108.226562 Z M 14.421875 124.097656 " clip-rule="nonzero"/></clipPath></defs><g clip-path="url(#27f91bbf41)"><g clip-path="url(#ceba76b02a)"><path fill="#ff5516" d="M 3.679688 0.0820312 L 3.679688 224.917969 L 221.0625 224.917969 L 221.0625 0.0820312 Z M 3.679688 0.0820312 " fill-opacity="1" fill-rule="nonzero"/></g></g></svg>