<svg xmlns="http://www.w3.org/2000/svg" xmlns:xlink="http://www.w3.org/1999/xlink" width="300" zoomAndPan="magnify" viewBox="0 0 224.87999 225" height="300" preserveAspectRatio="xMidYMid meet" version="1.0"><defs><clipPath id="1f230876f9"><path d="M 0 0.0585938 L 223.1875 0.0585938 L 223.1875 223.25 L 0 223.25 Z M 0 0.0585938 " clip-rule="nonzero"/></clipPath><clipPath id="d926dde7f6"><path d="M 111.59375 0.0585938 C 49.960938 0.0585938 0 50.023438 0 111.652344 C 0 173.285156 49.960938 223.25 111.59375 223.25 C 173.226562 223.25 223.1875 173.285156 223.1875 111.652344 C 223.1875 50.023438 173.226562 0.0585938 111.59375 0.0585938 Z M 111.59375 0.0585938 " clip-rule="nonzero"/></clipPath><clipPath id="9f01a178d7"><path d="M 36.789062 38.421875 L 182.679688 38.421875 L 182.679688 184.308594 L 36.789062 184.308594 Z M 36.789062 38.421875 " clip-rule="nonzero"/></clipPath></defs><g clip-path="url(#1f230876f9)"><g clip-path="url(#d926dde7f6)"><path fill="#3f3f3f" d="M 0 0.0585938 L 223.1875 0.0585938 L 223.1875 223.25 L 0 223.25 Z M 0 0.0585938 " fill-opacity="1" fill-rule="nonzero"/></g></g><g clip-path="url(#9f01a178d7)"><path fill="#ffffff" d="M 161.234375 186.453125 L 60.378906 186.453125 C 47.371094 186.453125 36.789062 175.871094 36.789062 162.867188 L 36.789062 62.007812 C 36.789062 49 47.371094 38.421875 60.378906 38.421875 L 161.234375 38.421875 C 174.242188 38.421875 184.820312 49 184.820312 62.007812 L 184.820312 162.867188 C 184.820312 175.871094 174.242188 186.453125 161.234375 186.453125 Z M 60.378906 44.226562 C 50.574219 44.226562 42.597656 52.203125 42.597656 62.007812 L 42.597656 162.867188 C 42.597656 172.667969 50.574219 180.644531 60.378906 180.644531 L 161.234375 180.644531 C 171.039062 180.644531 179.015625 172.667969 179.015625 162.867188 L 179.015625 62.007812 C 179.015625 52.203125 171.039062 44.226562 161.234375 44.226562 Z M 60.378906 44.226562 " fill-opacity="1" fill-rule="nonzero"/></g><path fill="#ffffff" d="M 81.78125 75.660156 C 81.78125 76.230469 81.726562 76.796875 81.613281 77.359375 C 81.5 77.917969 81.335938 78.464844 81.117188 78.992188 C 80.898438 79.519531 80.628906 80.023438 80.3125 80.496094 C 79.996094 80.972656 79.632812 81.414062 79.230469 81.816406 C 78.824219 82.222656 78.386719 82.582031 77.910156 82.898438 C 77.433594 83.21875 76.933594 83.484375 76.40625 83.703125 C 75.875 83.921875 75.332031 84.089844 74.773438 84.199219 C 74.210938 84.3125 73.644531 84.367188 73.074219 84.367188 C 72.5 84.367188 71.933594 84.3125 71.375 84.199219 C 70.8125 84.089844 70.269531 83.921875 69.742188 83.703125 C 69.210938 83.484375 68.710938 83.21875 68.234375 82.898438 C 67.757812 82.582031 67.320312 82.222656 66.914062 81.816406 C 66.511719 81.414062 66.148438 80.972656 65.832031 80.496094 C 65.515625 80.023438 65.246094 79.519531 65.027344 78.992188 C 64.808594 78.464844 64.644531 77.917969 64.53125 77.359375 C 64.421875 76.796875 64.363281 76.230469 64.363281 75.660156 C 64.363281 75.089844 64.421875 74.523438 64.53125 73.960938 C 64.644531 73.398438 64.808594 72.855469 65.027344 72.328125 C 65.246094 71.800781 65.515625 71.296875 65.832031 70.820312 C 66.148438 70.347656 66.511719 69.90625 66.914062 69.503906 C 67.320312 69.097656 67.757812 68.738281 68.234375 68.417969 C 68.710938 68.101562 69.210938 67.832031 69.742188 67.613281 C 70.269531 67.394531 70.8125 67.230469 71.375 67.121094 C 71.933594 67.007812 72.5 66.953125 73.074219 66.953125 C 73.644531 66.953125 74.210938 67.007812 74.773438 67.121094 C 75.332031 67.230469 75.875 67.394531 76.40625 67.613281 C 76.933594 67.832031 77.433594 68.101562 77.910156 68.417969 C 78.386719 68.738281 78.824219 69.097656 79.230469 69.503906 C 79.632812 69.90625 79.996094 70.347656 80.3125 70.820312 C 80.628906 71.296875 80.898438 71.800781 81.117188 72.328125 C 81.335938 72.855469 81.5 73.398438 81.613281 73.960938 C 81.726562 74.523438 81.78125 75.089844 81.78125 75.660156 Z M 81.78125 75.660156 " fill-opacity="1" fill-rule="nonzero"/><path fill="#ffffff" d="M 64.363281 101.996094 L 81.78125 101.996094 L 81.78125 158.742188 L 64.363281 158.742188 Z M 64.363281 101.996094 " fill-opacity="1" fill-rule="nonzero"/><path fill="#ffffff" d="M 151.441406 122.425781 L 151.441406 158.707031 L 133.445312 158.707031 L 133.445312 135.34375 C 133.445312 129.894531 129.027344 125.359375 123.433594 125.398438 C 117.792969 125.4375 113.417969 130.183594 113.417969 135.503906 L 113.417969 158.742188 L 96.003906 158.742188 L 96.003906 101.996094 L 113.417969 101.996094 L 113.417969 112.636719 C 113.417969 112.636719 126.496094 98.042969 142.027344 107.011719 C 147.609375 110.234375 151.230469 116.039062 151.441406 122.425781 Z M 151.441406 122.425781 " fill-opacity="1" fill-rule="nonzero"/></svg>