<svg xmlns="http://www.w3.org/2000/svg" xmlns:xlink="http://www.w3.org/1999/xlink" width="300" zoomAndPan="magnify" viewBox="0 0 224.87999 225" height="300" preserveAspectRatio="xMidYMid meet" version="1.0"><defs><clipPath id="5b2b6fa1d5"><path d="M 0 0.0585938 L 224.761719 0.0585938 L 224.761719 224.9375 L 0 224.9375 Z M 0 0.0585938 " clip-rule="nonzero"/></clipPath><clipPath id="553926c9dc"><path d="M 112.441406 0.0585938 C 50.339844 0.0585938 0 50.402344 0 112.5 C 0 174.597656 50.339844 224.941406 112.441406 224.941406 C 174.539062 224.941406 224.878906 174.597656 224.878906 112.5 C 224.878906 50.402344 174.539062 0.0585938 112.441406 0.0585938 Z M 112.441406 0.0585938 " clip-rule="nonzero"/></clipPath><clipPath id="f19fed395f"><path d="M 76.273438 38.421875 L 147.542969 38.421875 L 147.542969 189.871094 L 76.273438 189.871094 Z M 76.273438 38.421875 " clip-rule="nonzero"/></clipPath></defs><g clip-path="url(#5b2b6fa1d5)"><g clip-path="url(#553926c9dc)"><path fill="#3f3f3f" d="M 0 0.0585938 L 224.878906 0.0585938 L 224.878906 224.941406 L 0 224.941406 Z M 0 0.0585938 " fill-opacity="1" fill-rule="nonzero"/></g></g><g clip-path="url(#f19fed395f)"><path fill="#ffffff" d="M 131.101562 63.558594 L 147.542969 63.558594 L 147.542969 38.675781 L 126.546875 38.675781 L 126.546875 38.769531 C 98.945312 39.785156 93.253906 55.304688 92.777344 71.714844 L 92.714844 71.714844 L 92.714844 88.980469 L 76.273438 88.980469 L 76.273438 113.894531 L 92.714844 113.894531 L 92.714844 189.617188 L 122.214844 189.617188 L 122.214844 113.894531 L 143.371094 113.894531 L 147.542969 88.980469 L 122.214844 88.980469 L 122.214844 73.523438 C 122.214844 68.03125 125.882812 63.558594 131.101562 63.558594 Z M 131.101562 63.558594 " fill-opacity="1" fill-rule="nonzero"/></g></svg>