<svg xmlns="http://www.w3.org/2000/svg" xmlns:xlink="http://www.w3.org/1999/xlink" width="300" zoomAndPan="magnify" viewBox="0 0 224.87999 225" height="300" preserveAspectRatio="xMidYMid meet" version="1.0"><defs><clipPath id="e7d13acf53"><path d="M 0 0.0585938 L 224.761719 0.0585938 L 224.761719 224.9375 L 0 224.9375 Z M 0 0.0585938 " clip-rule="nonzero"/></clipPath><clipPath id="09fde5d152"><path d="M 112.441406 0.0585938 C 50.339844 0.0585938 0 50.402344 0 112.5 C 0 174.597656 50.339844 224.941406 112.441406 224.941406 C 174.539062 224.941406 224.878906 174.597656 224.878906 112.5 C 224.878906 50.402344 174.539062 0.0585938 112.441406 0.0585938 Z M 112.441406 0.0585938 " clip-rule="nonzero"/></clipPath><clipPath id="a7ede5e865"><path d="M 38.054688 39.695312 L 185.050781 39.695312 L 185.050781 186.691406 L 38.054688 186.691406 Z M 38.054688 39.695312 " clip-rule="nonzero"/></clipPath></defs><g clip-path="url(#e7d13acf53)"><g clip-path="url(#09fde5d152)"><path fill="#3f3f3f" d="M 0 0.0585938 L 224.878906 0.0585938 L 224.878906 224.941406 L 0 224.941406 Z M 0 0.0585938 " fill-opacity="1" fill-rule="nonzero"/></g></g><g clip-path="url(#a7ede5e865)"><path fill="#ffffff" d="M 185.171875 99.640625 L 147.820312 99.640625 C 149.417969 103.878906 150.296875 108.46875 150.296875 113.261719 C 150.296875 134.621094 132.957031 151.953125 111.605469 151.953125 C 90.25 151.953125 72.914062 134.621094 72.914062 113.261719 C 72.914062 108.46875 73.785156 103.878906 75.382812 99.640625 L 38.039062 99.640625 L 38.039062 164.488281 C 38.039062 176.824219 48.039062 186.832031 60.378906 186.832031 L 162.828125 186.832031 C 175.167969 186.832031 185.171875 176.824219 185.171875 164.488281 Z M 111.605469 82.203125 C 128.75 82.203125 142.667969 96.121094 142.667969 113.261719 C 142.667969 130.40625 128.75 144.324219 111.605469 144.324219 C 94.460938 144.324219 80.542969 130.40625 80.542969 113.261719 C 80.542969 96.121094 94.460938 82.203125 111.605469 82.203125 Z M 38.039062 92.011719 L 79.273438 92.011719 C 86.199219 81.507812 98.097656 74.574219 111.605469 74.574219 C 125.109375 74.574219 137.011719 81.507812 143.929688 92.011719 L 185.171875 92.011719 L 185.171875 62.039062 C 185.171875 49.703125 175.167969 39.695312 162.828125 39.695312 L 60.378906 39.695312 C 48.039062 39.695312 38.039062 49.703125 38.039062 62.039062 Z M 155.199219 60.949219 C 160.011719 60.949219 163.917969 64.855469 163.917969 69.667969 C 163.917969 74.480469 160.011719 78.386719 155.199219 78.386719 C 150.386719 78.386719 146.480469 74.480469 146.480469 69.667969 C 146.480469 64.855469 150.386719 60.949219 155.199219 60.949219 Z M 155.199219 60.949219 " fill-opacity="1" fill-rule="evenodd"/></g></svg>