<svg xmlns="http://www.w3.org/2000/svg" xmlns:xlink="http://www.w3.org/1999/xlink" width="300" zoomAndPan="magnify" viewBox="0 0 224.87999 225" height="300" preserveAspectRatio="xMidYMid meet" version="1.0"><defs><clipPath id="fa93590c03"><path d="M 8.34375 9.492188 L 223.792969 9.492188 L 223.792969 224.9375 L 8.34375 224.9375 Z M 8.34375 9.492188 " clip-rule="nonzero"/></clipPath><clipPath id="a1e12f88d2"><path d="M 116.066406 9.492188 C 56.574219 9.492188 8.34375 57.71875 8.34375 117.214844 C 8.34375 176.710938 56.574219 224.941406 116.066406 224.941406 C 175.5625 224.941406 223.792969 176.710938 223.792969 117.214844 C 223.792969 57.71875 175.5625 9.492188 116.066406 9.492188 Z M 116.066406 9.492188 " clip-rule="nonzero"/></clipPath><clipPath id="b4817f48c8"><path d="M 42.289062 55.085938 L 187.148438 55.085938 L 187.148438 179.730469 L 42.289062 179.730469 Z M 42.289062 55.085938 " clip-rule="nonzero"/></clipPath></defs><g clip-path="url(#fa93590c03)"><g clip-path="url(#a1e12f88d2)"><path fill="#ff5516" d="M 8.34375 9.492188 L 223.792969 9.492188 L 223.792969 224.941406 L 8.34375 224.941406 Z M 8.34375 9.492188 " fill-opacity="1" fill-rule="nonzero"/></g></g><g clip-path="url(#b4817f48c8)"><path fill="#ffffff" d="M 143.683594 121.496094 C 138.742188 121.496094 134.738281 117.488281 134.738281 112.550781 C 134.738281 107.613281 138.742188 103.609375 143.683594 103.609375 C 148.621094 103.609375 152.625 107.613281 152.625 112.550781 C 152.625 117.488281 148.621094 121.496094 143.683594 121.496094 Z M 113.871094 121.496094 C 108.933594 121.496094 104.929688 117.488281 104.929688 112.550781 C 104.929688 107.613281 108.933594 103.609375 113.871094 103.609375 C 118.8125 103.609375 122.816406 107.613281 122.816406 112.550781 C 122.816406 117.488281 118.8125 121.496094 113.871094 121.496094 Z M 84.0625 121.496094 C 79.121094 121.496094 75.117188 117.488281 75.117188 112.550781 C 75.117188 107.613281 79.121094 103.609375 84.0625 103.609375 C 89 103.609375 93.003906 107.613281 93.003906 112.550781 C 93.003906 117.488281 89 121.496094 84.0625 121.496094 Z M 116.214844 55.890625 C 76.121094 55.097656 43.117188 79.804688 42.503906 111.074219 C 42.289062 121.941406 46.019531 132.171875 52.660156 140.929688 L 52.65625 140.929688 C 64.078125 155.601562 51.613281 180.824219 51.613281 180.824219 L 88.414062 164.972656 C 96.339844 167.480469 104.957031 168.9375 113.984375 169.117188 C 154.078125 169.90625 187.078125 145.203125 187.695312 113.933594 C 188.3125 82.667969 156.308594 56.679688 116.214844 55.890625 " fill-opacity="1" fill-rule="evenodd"/></g></svg>