<svg xmlns="http://www.w3.org/2000/svg" xmlns:xlink="http://www.w3.org/1999/xlink" width="300" zoomAndPan="magnify" viewBox="0 0 224.87999 225" height="300" preserveAspectRatio="xMidYMid meet" version="1.0"><defs><clipPath id="c1ac779af8"><path d="M 0 0.0585938 L 224.761719 0.0585938 L 224.761719 224.9375 L 0 224.9375 Z M 0 0.0585938 " clip-rule="nonzero"/></clipPath><clipPath id="73437b3129"><path d="M 112.441406 0.0585938 C 50.339844 0.0585938 0 50.402344 0 112.5 C 0 174.597656 50.339844 224.941406 112.441406 224.941406 C 174.539062 224.941406 224.878906 174.597656 224.878906 112.5 C 224.878906 50.402344 174.539062 0.0585938 112.441406 0.0585938 Z M 112.441406 0.0585938 " clip-rule="nonzero"/></clipPath><clipPath id="bb4230214f"><path d="M 30.039062 44 L 195 44 L 195 183.375 L 30.039062 183.375 Z M 30.039062 44 " clip-rule="nonzero"/></clipPath></defs><g clip-path="url(#c1ac779af8)"><g clip-path="url(#73437b3129)"><path fill="#ff5516" d="M 0 0.0585938 L 224.878906 0.0585938 L 224.878906 224.941406 L 0 224.941406 Z M 0 0.0585938 " fill-opacity="1" fill-rule="nonzero"/></g></g><g clip-path="url(#bb4230214f)"><path fill="#ffffff" d="M 185.472656 71.945312 L 142.617188 71.945312 C 141.222656 55.246094 126.613281 42.722656 109.917969 44.117188 C 95.027344 45.367188 83.339844 57.054688 82.089844 71.945312 L 39.371094 71.945312 C 34.640625 71.945312 30.746094 75.839844 30.605469 80.570312 L 30.605469 175.046875 C 30.605469 179.917969 34.503906 183.675781 39.371094 183.8125 L 185.472656 183.8125 C 190.339844 183.8125 194.097656 179.917969 194.238281 175.046875 L 194.238281 80.570312 C 194.097656 75.839844 190.203125 71.945312 185.472656 71.945312 Z M 35.617188 175.046875 L 35.617188 80.570312 C 35.617188 80.292969 35.617188 80.015625 35.753906 79.734375 L 90.160156 127.738281 L 35.617188 175.742188 C 35.617188 175.605469 35.617188 175.324219 35.617188 175.046875 Z M 112.421875 104.640625 C 128.285156 104.640625 141.363281 92.535156 142.617188 76.675781 L 185.191406 76.675781 L 115.34375 138.175781 C 113.675781 139.707031 111.03125 139.707031 109.359375 138.175781 L 39.511719 76.8125 L 82.089844 76.8125 C 83.480469 92.535156 96.558594 104.640625 112.421875 104.640625 Z M 93.914062 131.078125 L 106.300781 141.933594 C 109.917969 144.992188 115.203125 144.992188 118.683594 141.933594 L 131.066406 131.078125 L 185.332031 178.945312 L 39.511719 178.945312 Z M 134.683594 127.738281 L 189.226562 79.734375 C 189.226562 80.015625 189.367188 80.292969 189.367188 80.570312 L 189.367188 175.046875 C 189.367188 175.324219 189.367188 175.605469 189.226562 175.882812 Z M 112.421875 48.847656 C 126.476562 48.847656 137.882812 60.257812 137.882812 74.308594 C 137.882812 88.363281 126.476562 99.773438 112.421875 99.773438 C 98.367188 99.773438 86.957031 88.363281 86.957031 74.308594 C 86.957031 60.257812 98.367188 48.847656 112.421875 48.847656 Z M 112.421875 48.847656 " fill-opacity="1" fill-rule="nonzero"/></g><path fill="#ffffff" d="M 114.507812 57.613281 L 110.335938 57.613281 C 102.265625 57.613281 95.726562 64.152344 95.726562 72.222656 L 95.726562 76.394531 C 95.726562 84.464844 102.265625 91.007812 110.335938 91.007812 L 112.699219 91.007812 C 114.089844 91.007812 115.066406 89.894531 115.066406 88.5 C 115.066406 87.109375 113.953125 85.996094 112.699219 85.996094 L 110.335938 85.996094 C 104.90625 85.996094 100.59375 81.683594 100.59375 76.257812 L 100.59375 72.082031 C 100.59375 66.65625 104.90625 62.34375 110.335938 62.34375 L 114.507812 62.34375 C 119.933594 62.34375 124.25 66.65625 124.25 72.082031 L 124.25 79.457031 C 124.25 80.152344 123.691406 80.710938 122.996094 80.710938 L 121.464844 80.710938 C 120.769531 80.710938 120.214844 80.152344 120.214844 79.457031 L 120.214844 72.640625 C 120.214844 69.160156 117.429688 66.378906 113.953125 66.378906 L 111.03125 66.378906 C 107.550781 66.378906 104.769531 69.160156 104.769531 72.640625 L 104.769531 75.5625 C 104.769531 79.039062 107.550781 81.824219 111.03125 81.824219 L 115.898438 81.824219 C 116.875 84.050781 118.960938 85.578125 121.464844 85.578125 L 122.996094 85.578125 C 126.335938 85.578125 129.117188 82.796875 129.117188 79.457031 L 129.117188 72.082031 C 129.117188 64.152344 122.578125 57.613281 114.507812 57.613281 Z M 109.640625 75.839844 L 109.640625 72.917969 C 109.640625 72.222656 110.195312 71.527344 111.03125 71.527344 L 113.953125 71.527344 C 114.648438 71.527344 115.34375 72.082031 115.34375 72.917969 L 115.34375 77.230469 L 111.03125 77.230469 C 110.195312 77.230469 109.640625 76.535156 109.640625 75.839844 Z M 109.640625 75.839844 " fill-opacity="1" fill-rule="nonzero"/></svg>