<svg xmlns="http://www.w3.org/2000/svg" xmlns:xlink="http://www.w3.org/1999/xlink" width="300" zoomAndPan="magnify" viewBox="0 0 224.87999 225" height="300" preserveAspectRatio="xMidYMid meet" version="1.0"><defs><clipPath id="28ce0b2719"><path d="M 0 0.0585938 L 224.761719 0.0585938 L 224.761719 224.9375 L 0 224.9375 Z M 0 0.0585938 " clip-rule="nonzero"/></clipPath><clipPath id="62d60cd3bc"><path d="M 112.441406 0.0585938 C 50.339844 0.0585938 0 50.402344 0 112.5 C 0 174.597656 50.339844 224.941406 112.441406 224.941406 C 174.539062 224.941406 224.878906 174.597656 224.878906 112.5 C 224.878906 50.402344 174.539062 0.0585938 112.441406 0.0585938 Z M 112.441406 0.0585938 " clip-rule="nonzero"/></clipPath><clipPath id="01192ec03a"><path d="M 110.542969 38.476562 L 184.613281 38.476562 L 184.613281 114.15625 L 110.542969 114.15625 Z M 110.542969 38.476562 " clip-rule="nonzero"/></clipPath></defs><g clip-path="url(#28ce0b2719)"><g clip-path="url(#62d60cd3bc)"><path fill="#ff5516" d="M 0 0.0585938 L 224.878906 0.0585938 L 224.878906 224.941406 L 0 224.941406 Z M 0 0.0585938 " fill-opacity="1" fill-rule="nonzero"/></g></g><path fill="#ffffff" d="M 68.175781 59.4375 C 69.132812 59.980469 69.335938 61.03125 69.777344 61.976562 C 70.296875 63.097656 70.980469 64.195312 71.558594 65.296875 C 72.871094 67.796875 74.1875 70.296875 75.503906 72.796875 C 78.109375 77.734375 80.71875 82.671875 83.320312 87.613281 C 83.707031 88.347656 84.101562 89.109375 84.171875 89.9375 C 84.363281 92.15625 80.757812 94.65625 79.078125 95.691406 C 74.808594 98.328125 70.679688 100.289062 67.746094 104.601562 C 67.289062 105.273438 66.863281 105.996094 66.695312 106.792969 C 66.277344 108.757812 68.195312 111.472656 69.027344 113.183594 C 70.136719 115.453125 71.324219 117.679688 72.59375 119.859375 C 75.148438 124.242188 78.027344 128.433594 81.222656 132.371094 C 89.601562 142.691406 100.210938 151.296875 112.5 156.496094 C 113.351562 156.855469 118.605469 151.253906 119.378906 150.351562 C 121.339844 148.058594 123.035156 145.5625 125.222656 143.460938 C 128.199219 140.601562 130.644531 139.429688 134.289062 141.964844 C 141.554688 147.015625 148.972656 151.847656 156.53125 156.453125 C 166.933594 162.789062 151.835938 178.851562 145.105469 181.738281 C 130.277344 188.085938 112.730469 182.585938 99.386719 175.238281 C 72.425781 160.394531 51.550781 134.855469 42.371094 105.480469 C 40.191406 98.511719 38.636719 91.199219 39.355469 83.929688 C 40.421875 73.207031 47.539062 63.910156 57.816406 60.503906 C 60.566406 59.59375 63.453125 59.109375 66.351562 59.09375 C 66.902344 59.089844 67.46875 59.109375 67.972656 59.332031 C 68.042969 59.363281 68.113281 59.398438 68.175781 59.4375 " fill-opacity="1" fill-rule="nonzero"/><g clip-path="url(#01192ec03a)"><path fill="#ffffff" d="M 178.304688 81.886719 C 174.75 73.964844 169.867188 66.78125 163.78125 60.539062 C 157.699219 54.296875 150.644531 49.226562 142.816406 45.46875 C 134.753906 41.601562 126.128906 39.257812 117.1875 38.503906 C 115.300781 38.34375 113.5 38.914062 112.242188 40.074219 C 111.269531 40.96875 110.734375 42.125 110.734375 43.332031 C 110.738281 46.039062 113.191406 48.371094 116.324219 48.640625 C 147.636719 51.273438 172.648438 76.917969 174.445312 108.289062 L 174.445312 108.292969 C 174.632812 111.429688 176.902344 113.941406 179.605469 114.015625 C 179.722656 114.015625 179.839844 114.015625 179.957031 114.007812 C 181.039062 113.945312 182.074219 113.449219 182.902344 112.59375 C 184.09375 111.367188 184.710938 109.578125 184.601562 107.691406 C 184.082031 98.730469 181.960938 90.050781 178.304688 81.886719 " fill-opacity="1" fill-rule="nonzero"/></g><path fill="#ffffff" d="M 147.015625 76.875 C 142.175781 71.910156 136.574219 67.863281 130.363281 64.847656 C 123.964844 61.742188 117.125 59.832031 110.023438 59.167969 C 108.261719 59 106.582031 59.515625 105.410156 60.585938 C 104.53125 61.390625 104.046875 62.429688 104.046875 63.515625 L 104.035156 64.453125 L 104.035156 64.46875 C 104.035156 65.703125 104.589844 66.886719 105.59375 67.792969 C 106.523438 68.632812 107.742188 69.167969 109.054688 69.292969 C 133.230469 71.558594 152 90.785156 153.589844 115.011719 L 153.589844 115.015625 C 153.722656 116.324219 154.195312 117.570312 155.011719 118.523438 C 155.890625 119.546875 157.0625 120.132812 158.300781 120.164062 L 159.253906 120.179688 C 159.355469 120.179688 159.460938 120.179688 159.566406 120.171875 C 160.539062 120.113281 161.472656 119.667969 162.222656 118.890625 C 163.320312 117.746094 163.878906 116.078125 163.757812 114.316406 C 163.277344 107.199219 161.546875 100.3125 158.609375 93.835938 C 155.753906 87.546875 151.855469 81.839844 147.015625 76.875 " fill-opacity="1" fill-rule="nonzero"/><path fill="#ffffff" d="M 137.007812 105.339844 C 135.078125 101.203125 132.476562 97.441406 129.277344 94.160156 C 126.082031 90.875 122.386719 88.179688 118.300781 86.144531 C 114.101562 84.050781 109.605469 82.714844 104.933594 82.179688 C 103.363281 81.996094 101.8125 82.4375 100.785156 83.359375 C 100.042969 84.023438 99.636719 84.882812 99.640625 85.78125 L 99.609375 88.199219 L 99.609375 88.21875 C 99.617188 89.253906 100.082031 90.246094 100.914062 91.007812 C 101.675781 91.703125 102.683594 92.15625 103.757812 92.28125 C 117.980469 93.921875 129.222656 105.460938 130.492188 119.71875 L 130.492188 119.722656 C 130.589844 120.796875 131.019531 121.816406 131.691406 122.59375 C 132.433594 123.449219 133.414062 123.9375 134.445312 123.972656 L 136.886719 124.003906 C 136.972656 124.003906 137.058594 124.003906 137.144531 124 C 137.949219 123.953125 138.71875 123.578125 139.335938 122.921875 C 140.285156 121.917969 140.765625 120.382812 140.625 118.808594 C 140.207031 114.125 138.988281 109.59375 137.007812 105.339844 " fill-opacity="1" fill-rule="nonzero"/></svg>